Coordinates
version=1
nRows=4
nColumns=107
inDegrees=yes

Units are S.I. units (second, meters, Newtons, ...)
If the header above contains a line with 'inDegrees', this indicates whether rotational values are in degrees (yes) or radians (no).

endheader
time	sternoclavicular_r2	sternoclavicular_r3	unrotscap_r3	unrotscap_r2	acromioclavicular_r2	acromioclavicular_r3	acromioclavicular_r1	unrothum_r1	unrothum_r3	unrothum_r2	elv_angle	shoulder_elv	shoulder1_r2	shoulder_rot	elbow_flexion	pro_sup	deviation	flexion	proximal_distal_r1	proximal_distal_r3	cmc_flexion	cmc_abduction	mp_flexion	ip_flexion	mcp2_flexion	mcp2_abduction	pm2_flexion	md2_flexion	mcp3_flexion	mcp3_abduction	pm3_flexion	md3_flexion	mcp4_flexion	mcp4_abduction	pm4_flexion	md4_flexion	mcp5_flexion	mcp5_abduction	pm5_flexion	md5_flexion	bicpt_tx	bicpt_ty	bicpt_tz	bicpt2_tx	bicpt2_ty	bicpt2_tz	ptpt_tx	ptpt_ty	ptpt_tz	FCUpt_tx	FCUpt_ty	FCUpt_tz	EDCpt_tx	EDCpt_ty	EDCpt_tz	APLpt_tx	APLpt_ty	APLpt_tz	FPLpt_tx	FPLpt_ty	FPLpt_tz	FPLpt2_tx	FPLpt2_ty	FPLpt2_tz	PEC1pt2_tx	PEC1pt2_ty	PEC1pt2_tz	PEC1pt3_tx	PEC1pt3_ty	PEC1pt3_tz	PEC2pt2_tx	PEC2pt2_ty	PEC2pt2_tz	PEC2pt3_tx	PEC2pt3_ty	PEC2pt3_tz	PEC3pt2_tx	PEC3pt2_ty	PEC3pt2_tz	PEC3pt3_tx	PEC3pt3_ty	PEC3pt3_tz	DELT2pt2a_tx	DELT2pt2a_ty	DELT2pt2a_tz	DELT2pt2_tx	DELT2pt2_ty	DELT2pt2_tz	LAT1pt2_tx	LAT1pt2_ty	LAT1pt2_tz	LAT1pt3_tx	LAT1pt3_ty	LAT1pt3_tz	LAT2pt2_tx	LAT2pt2_ty	LAT2pt2_tz	LAT2pt3_tx	LAT2pt3_ty	LAT2pt3_tz	LAT3pt2_tx	LAT3pt2_ty	LAT3pt2_tz	LAT3pt3_tx	LAT3pt3_ty	LAT3pt3_tz
      0.50000000	     -0.32529031	      0.13777762	     -0.13777762	      0.32529031	     -0.06586467	      0.53229510	      0.23926298	     -0.23926298	     -0.53229510	      0.06586467	     97.92351451	     77.01537143	     -1.70908774	    -19.38625422	     29.05800674	     24.35116084	      0.09516317	     -0.89407605	      0.12173765	     -0.44703802	      4.62701738	     14.85398420	    -36.67278108	    -57.97220378	     15.32136473	     11.81070793	     15.09683732	    -18.43519678	     87.95704960	      4.19903078	     77.65289104	     35.03468532	     81.58467404	    -11.96239505	     77.88121666	     28.61819259	     25.67036190	     -8.37269162	    -14.98791946	      4.90219595	      0.00086115	     -0.03093049	     -0.00483646	      0.01626506	     -0.01809375	     -0.00896890	      0.00575072	     -0.06606344	     -0.00201162	      0.00624252	     -0.18378583	     -0.00018312	     -0.00292213	      0.00078146	      0.00019240	      0.00024533	      0.00009813	      0.00049066	      0.00031402	      0.00094207	      0.00052991	      0.00004086	     -0.00010378	     -0.00012454	      0.00252439	      0.00885678	      0.00616123	     -0.00825777	      0.01993844	     -0.01891157	      0.00252439	      0.00885678	      0.00616123	      0.00055622	      0.01848370	     -0.00971250	      0.00397992	      0.00492514	      0.01604530	      0.00000000	      0.00793364	      0.00000000	     -0.00723089	     -0.03341614	     -0.00654250	      0.01341957	     -0.00041316	     -0.00308812	     -0.00089851	      0.01506080	     -0.00616123	      0.00248161	      0.02173547	     -0.01797027	     -0.00603288	      0.01304984	     -0.00551944	     -0.01257919	      0.02755441	     -0.03084896	     -0.02361807	      0.01459015	     -0.00740204	     -0.01565981	      0.03183305	     -0.03855050
      0.53333333	     -0.32514853	      0.13771757	     -0.13771757	      0.32514853	     -0.06583596	      0.53206309	      0.23915870	     -0.23915870	     -0.53206309	      0.06583596	     97.95998956	     76.98180354	     -1.70972435	    -19.50061371	     29.08110691	     24.63478318	      0.10124009	     -0.88471528	      0.12900779	     -0.44235764	      4.48030097	     14.75101465	    -36.33149201	    -57.62574213	     15.28272581	     11.89639329	     15.65503548	    -18.48443951	     88.02705639	      4.06523880	     77.53846924	     35.63557443	     81.40552990	    -11.92816678	     78.15025186	     29.02234376	     25.71120997	     -8.20833575	    -15.05518744	      4.89818150	      0.00086191	     -0.03093314	     -0.00483688	      0.01627580	     -0.01810003	     -0.00894488	      0.00572977	     -0.06607699	     -0.00203446	      0.00626970	     -0.18378120	     -0.00018850	     -0.00295617	      0.00079162	      0.00019279	      0.00024970	      0.00009988	      0.00049940	      0.00031962	      0.00095885	      0.00053935	      0.00004119	     -0.00010086	     -0.00012103	      0.00252329	      0.00885291	      0.00615855	     -0.00825417	      0.01992975	     -0.01890333	      0.00252329	      0.00885291	      0.00615855	      0.00055598	      0.01847565	     -0.00970827	      0.00397866	      0.00492299	      0.01604226	      0.00000000	      0.00792668	      0.00000000	     -0.00722774	     -0.03340158	     -0.00653672	      0.01348645	     -0.00041665	     -0.00312677	     -0.00089812	      0.01505423	     -0.00615855	      0.00248053	      0.02172599	     -0.01796244	     -0.00603025	      0.01304415	     -0.00551703	     -0.01257371	      0.02754240	     -0.03083552	     -0.02360777	      0.01458379	     -0.00739881	     -0.01565298	      0.03181917	     -0.03853370
      0.56666667	     -0.32580666	      0.13799632	     -0.13799632	      0.32580666	     -0.06596922	      0.53314004	      0.23964278	     -0.23964278	     -0.53314004	      0.06596922	     97.87029653	     77.13762301	     -1.70815891	    -18.77532704	     28.90271407	     23.57499787	      0.09134976	     -0.91751104	      0.11714455	     -0.45875552	      4.36712853	     14.95922859	    -36.47938443	    -58.08627493	     16.51112911	     11.81814735	     14.53647591	    -18.43629868	     88.19979982	      4.05593648	     77.40766046	     34.11083338	     81.67285355	    -12.00491042	     78.35646543	     28.11476656	     25.95046053	     -8.38590323	    -14.86414298	      4.88265962	      0.00085601	     -0.03091269	     -0.00483359	      0.01623515	     -0.01805156	     -0.00903431	      0.00580807	     -0.06602636	     -0.00194909	      0.00616822	     -0.18379844	     -0.00016824	     -0.00282899	      0.00075372	      0.00019123	      0.00023376	      0.00009350	      0.00046752	      0.00029921	      0.00089764	      0.00050492	      0.00004143	     -0.00009858	     -0.00011830	      0.00252840	      0.00887083	      0.00617102	     -0.00827087	      0.01997009	     -0.01894159	      0.00252840	      0.00887083	      0.00617102	      0.00055711	      0.01851305	     -0.00972792	      0.00398451	      0.00493296	      0.01605635	      0.00000000	      0.00795903	      0.00000000	     -0.00724237	     -0.03346919	     -0.00656358	      0.01305955	     -0.00039462	     -0.00288498	     -0.00089994	      0.01508470	     -0.00617102	      0.00248555	      0.02176997	     -0.01799879	     -0.00604245	      0.01307055	     -0.00552820	     -0.01259916	      0.02759815	     -0.03089793	     -0.02365556	      0.01461331	     -0.00741379	     -0.01568466	      0.03188358	     -0.03861170
      0.60000000	     -0.32577465	      0.13798277	     -0.13798277	      0.32577465	     -0.06596274	      0.53308766	      0.23961923	     -0.23961923	     -0.53308766	      0.06596274	     97.87208568	     77.13004421	     -1.70819014	    -18.77186062	     28.90108341	     23.57658302	      0.09132994	     -0.91749584	      0.11712028	     -0.45874792	      4.36711867	     14.95918752	    -36.47939340	    -58.08622710	     16.51420969	     11.81829594	     14.53711769	    -18.43577538	     88.19952623	      4.05590106	     77.40779364	     34.11084956	     81.67239750	    -12.00490291	     78.35662071	     28.11478452	     25.95060665	     -8.38564695	    -14.86408904	      4.88267175	      0.00085596	     -0.03091251	     -0.00483356	      0.01623519	     -0.01805112	     -0.00903416	      0.00580796	     -0.06602643	     -0.00194922	      0.00616837	     -0.18379842	     -0.00016827	     -0.00282918	      0.00075378	      0.00019123	      0.00023376	      0.00009350	      0.00046752	      0.00029921	      0.00089764	      0.00050492	      0.00004143	     -0.00009858	     -0.00011830	      0.00252815	      0.00886996	      0.00617041	     -0.00827006	      0.01996813	     -0.01893973	      0.00252815	      0.00886996	      0.00617041	      0.00055705	      0.01851123	     -0.00972696	      0.00398423	      0.00493247	      0.01605566	      0.00000000	      0.00795746	      0.00000000	     -0.00724166	     -0.03346590	     -0.00656227	      0.01305746	     -0.00039452	     -0.00288387	     -0.00089985	      0.01508322	     -0.00617041	      0.00248530	      0.02176783	     -0.01799703	     -0.00604186	      0.01306927	     -0.00552766	     -0.01259792	      0.02759544	     -0.03089489	     -0.02365323	      0.01461187	     -0.00741306	     -0.01568312	      0.03188045	     -0.03860790
